REM DIRINDEX 1\2,1\3,1\4,1\5\6,1\5\7,1\5\8
REM DIRNAME "folder01","folder02","folder03","folder04","folder05","folder06","folder07","folder08"
TITLE ""
FILE "51.mp3" MP3
  TRACK 01 AUDIO
    TITLE "0:"
    INDEX 01 00:00:00
  TRACK 02 AUDIO
    TITLE "8:cjc163_0954"
    INDEX 01 00:00:18
  TRACK 03 AUDIO
    TITLE "0:"
    INDEX 01 00:01:57
  TRACK 04 AUDIO
    TITLE "8:cjc163_0955"
    INDEX 01 00:02:43
  TRACK 05 AUDIO
    TITLE "0:"
    INDEX 01 00:04:00
  TRACK 06 AUDIO
    TITLE "6:cjc163_0956"
    INDEX 01 00:04:37
  TRACK 07 AUDIO
    TITLE "0:"
    INDEX 01 00:09:27
  TRACK 08 AUDIO
    TITLE "7:cjc163_0957"
    INDEX 01 00:09:66
  TRACK 09 AUDIO
    TITLE "0:"
    INDEX 01 00:12:45
  TRACK 10 AUDIO
    TITLE "8:cjc163_0958"
    INDEX 01 00:13:23
  TRACK 11 AUDIO
    TITLE "0:"
    INDEX 01 00:14:48
  TRACK 12 AUDIO
    TITLE "6:cjc163_0959"
    INDEX 01 00:15:08
  TRACK 13 AUDIO
    TITLE "0:"
    INDEX 01 00:19:41
  TRACK 14 AUDIO
    TITLE "7:cjc163_0960"
    INDEX 01 00:20:07
  TRACK 15 AUDIO
    TITLE "0:"
    INDEX 01 00:23:03
  TRACK 16 AUDIO
    TITLE "8:cjc163_0961"
    INDEX 01 00:23:56
  TRACK 17 AUDIO
    TITLE "0:"
    INDEX 01 00:25:08
  TRACK 18 AUDIO
    TITLE "6:cjc163_0962"
    INDEX 01 00:25:51
  TRACK 19 AUDIO
    TITLE "0:"
    INDEX 01 00:29:69
  TRACK 20 AUDIO
    TITLE "7:cjc163_0963"
    INDEX 01 00:30:35
  TRACK 21 AUDIO
    TITLE "0:"
    INDEX 01 00:32:48
  TRACK 22 AUDIO
    TITLE "8:cjc163_0964"
    INDEX 01 00:33:35
  TRACK 23 AUDIO
    TITLE "0:"
    INDEX 01 00:34:60
  TRACK 24 AUDIO
    TITLE "6:cjc163_0965"
    INDEX 01 00:35:18
  TRACK 25 AUDIO
    TITLE "0:"
    INDEX 01 00:37:74
  TRACK 26 AUDIO
    TITLE "7:cjc163_0966"
    INDEX 01 00:38:42
  TRACK 27 AUDIO
    TITLE "0:"
    INDEX 01 00:40:16
  TRACK 28 AUDIO
    TITLE "8:cjc163_0967"
    INDEX 01 00:41:03
  TRACK 29 AUDIO
    TITLE "0:"
    INDEX 01 00:42:26
  TRACK 30 AUDIO
    TITLE "6:cjc163_0968"
    INDEX 01 00:43:00
  TRACK 31 AUDIO
    TITLE "0:"
    INDEX 01 00:47:06
  TRACK 32 AUDIO
    TITLE "7:cjc163_0969"
    INDEX 01 00:47:45
  TRACK 33 AUDIO
    TITLE "0:"
    INDEX 01 00:49:62
  TRACK 34 AUDIO
    TITLE "8:cjc163_0970"
    INDEX 01 00:50:45
  TRACK 35 AUDIO
    TITLE "0:"
    INDEX 01 00:51:74
  TRACK 36 AUDIO
    TITLE "6:cjc163_0971"
    INDEX 01 00:52:36
  TRACK 37 AUDIO
    TITLE "0:"
    INDEX 01 00:56:32
  TRACK 38 AUDIO
    TITLE "7:cjc163_0972"
    INDEX 01 00:56:70
  TRACK 39 AUDIO
    TITLE "0:"
    INDEX 01 00:59:07
  TRACK 40 AUDIO
    TITLE "8:cjc163_0973"
    INDEX 01 00:59:66
  TRACK 41 AUDIO
    TITLE "0:"
    INDEX 01 01:01:20
  TRACK 42 AUDIO
    TITLE "6:cjc163_0974"
    INDEX 01 01:01:59
  TRACK 43 AUDIO
    TITLE "0:"
    INDEX 01 01:05:72
  TRACK 44 AUDIO
    TITLE "7:cjc163_0975"
    INDEX 01 01:06:35
  TRACK 45 AUDIO
    TITLE "0:"
    INDEX 01 01:08:67
  TRACK 46 AUDIO
    TITLE "8:cjc163_0976"
    INDEX 01 01:09:51
  TRACK 47 AUDIO
    TITLE "0:"
    INDEX 01 01:10:66
  TRACK 48 AUDIO
    TITLE "6:cjc163_0977"
    INDEX 01 01:11:28
  TRACK 49 AUDIO
    TITLE "0:"
    INDEX 01 01:15:36
  TRACK 50 AUDIO
    TITLE "7:cjc163_0978"
    INDEX 01 01:16:02
  TRACK 51 AUDIO
    TITLE "0:"
    INDEX 01 01:18:10
  TRACK 52 AUDIO
    TITLE "8:cjc163_0979"
    INDEX 01 01:19:00
  TRACK 53 AUDIO
    TITLE "0:"
    INDEX 01 01:20:35
  TRACK 54 AUDIO
    TITLE "6:cjc163_0980"
    INDEX 01 01:20:72
  TRACK 55 AUDIO
    TITLE "0:"
    INDEX 01 01:24:72
  TRACK 56 AUDIO
    TITLE "7:cjc163_0981"
    INDEX 01 01:25:36
  TRACK 57 AUDIO
    TITLE "0:"
    INDEX 01 01:27:52
  TRACK 58 AUDIO
    TITLE "8:cjc163_0982"
    INDEX 01 01:28:34
  TRACK 59 AUDIO
    TITLE "0:"
    INDEX 01 01:29:59
  TRACK 60 AUDIO
    TITLE "6:cjc163_0983"
    INDEX 01 01:30:19
  TRACK 61 AUDIO
    TITLE "0:"
    INDEX 01 01:33:33
  TRACK 62 AUDIO
    TITLE "7:cjc163_0984"
    INDEX 01 01:33:69
  TRACK 63 AUDIO
    TITLE "0:"
    INDEX 01 01:35:58
  TRACK 64 AUDIO
    TITLE "8:cjc163_0985"
    INDEX 01 01:36:38
  TRACK 65 AUDIO
    TITLE "0:"
    INDEX 01 01:37:74
  TRACK 66 AUDIO
    TITLE "6:cjc163_0986"
    INDEX 01 01:38:37
  TRACK 67 AUDIO
    TITLE "0:"
    INDEX 01 01:41:21
  TRACK 68 AUDIO
    TITLE "7:cjc163_0987"
    INDEX 01 01:41:62
  TRACK 69 AUDIO
    TITLE "0:"
    INDEX 01 01:43:26
  TRACK 70 AUDIO
    TITLE "8:cjc163_0988"
    INDEX 01 01:44:10
  TRACK 71 AUDIO
    TITLE "0:"
    INDEX 01 01:45:35
  TRACK 72 AUDIO
    TITLE "6:cjc163_0989"
    INDEX 01 01:46:01
  TRACK 73 AUDIO
    TITLE "0:"
    INDEX 01 01:48:72
  TRACK 74 AUDIO
    TITLE "7:cjc163_0990"
    INDEX 01 01:49:36
  TRACK 75 AUDIO
    TITLE "0:"
    INDEX 01 01:51:20
  TRACK 76 AUDIO
    TITLE "8:cjc163_0991"
    INDEX 01 01:52:03
  TRACK 77 AUDIO
    TITLE "0:"
    INDEX 01 01:53:48
  TRACK 78 AUDIO
    TITLE "6:cjc163_0992"
    INDEX 01 01:54:14
  TRACK 79 AUDIO
    TITLE "0:"
    INDEX 01 01:56:64
  TRACK 80 AUDIO
    TITLE "7:cjc163_0993"
    INDEX 01 01:57:28
  TRACK 81 AUDIO
    TITLE "0:"
    INDEX 01 01:58:73
  TRACK 82 AUDIO
    TITLE "8:cjc163_0994"
    INDEX 01 01:59:52
  TRACK 83 AUDIO
    TITLE "0:"
    INDEX 01 02:01:24
  TRACK 84 AUDIO
    TITLE "6:cjc163_0995"
    INDEX 01 02:01:63
  TRACK 85 AUDIO
    TITLE "0:"
    INDEX 01 02:05:49
  TRACK 86 AUDIO
    TITLE "7:cjc163_0996"
    INDEX 01 02:06:13
  TRACK 87 AUDIO
    TITLE "0:"
    INDEX 01 02:08:48
  TRACK 88 AUDIO
    TITLE "8:cjc163_0997"
    INDEX 01 02:09:25
  TRACK 89 AUDIO
    TITLE "0:"
    INDEX 01 02:10:70
  TRACK 90 AUDIO
    TITLE "6:cjc163_0998"
    INDEX 01 02:11:32
  TRACK 91 AUDIO
    TITLE "0:"
    INDEX 01 02:17:54
  TRACK 92 AUDIO
    TITLE "7:cjc163_0999"
    INDEX 01 02:18:19
  TRACK 93 AUDIO
    TITLE "0:"
    INDEX 01 02:21:44
  TRACK 94 AUDIO
    TITLE "8:cjc163_1000"
    INDEX 01 02:22:26
  TRACK 95 AUDIO
    TITLE "0:"
    INDEX 01 02:24:00
  TRACK 96 AUDIO
    TITLE "6:cjc163_1001"
    INDEX 01 02:24:35
  TRACK 97 AUDIO
    TITLE "0:"
    INDEX 01 02:27:25
  TRACK 98 AUDIO
    TITLE "7:cjc163_1002"
    INDEX 01 02:27:64
  TRACK 99 AUDIO
    TITLE "0:"
    INDEX 01 02:29:61
  TRACK 100 AUDIO
    TITLE "8:cjc163_1003"
    INDEX 01 02:30:41
  TRACK 101 AUDIO
    TITLE "0:"
    INDEX 01 02:32:13
  TRACK 102 AUDIO
    TITLE "6:cjc163_1004"
    INDEX 01 02:32:54
  TRACK 103 AUDIO
    TITLE "0:"
    INDEX 01 02:35:33
  TRACK 104 AUDIO
    TITLE "7:cjc163_1005"
    INDEX 01 02:35:70
  TRACK 105 AUDIO
    TITLE "0:"
    INDEX 01 02:37:43
  TRACK 106 AUDIO
    TITLE "8:cjc163_1006"
    INDEX 01 02:38:23
  TRACK 107 AUDIO
    TITLE "0:"
    INDEX 01 02:39:60
  TRACK 108 AUDIO
    TITLE "6:cjc163_1007"
    INDEX 01 02:40:22
  TRACK 109 AUDIO
    TITLE "0:"
    INDEX 01 02:43:15
  TRACK 110 AUDIO
    TITLE "7:cjc163_1008"
    INDEX 01 02:43:54
  TRACK 111 AUDIO
    TITLE "0:"
    INDEX 01 02:45:35
  TRACK 112 AUDIO
    TITLE "8:cjc163_1009"
    INDEX 01 02:46:13
  TRACK 113 AUDIO
    TITLE "0:"
    INDEX 01 02:47:63
  TRACK 114 AUDIO
    TITLE "6:cjc163_1010"
    INDEX 01 02:48:24
  TRACK 115 AUDIO
    TITLE "0:"
    INDEX 01 02:52:47
  TRACK 116 AUDIO
    TITLE "7:cjc163_1011"
    INDEX 01 02:53:11
  TRACK 117 AUDIO
    TITLE "0:"
    INDEX 01 02:55:20
  TRACK 118 AUDIO
    TITLE "8:cjc163_1012"
    INDEX 01 02:56:00
  TRACK 119 AUDIO
    TITLE "0:"
    INDEX 01 02:57:24
  TRACK 120 AUDIO
    TITLE "6:cjc163_1013"
    INDEX 01 02:57:60
  TRACK 121 AUDIO
    TITLE "0:"
    INDEX 01 03:01:36
  TRACK 122 AUDIO
    TITLE "7:cjc163_1014"
    INDEX 01 03:02:00
  TRACK 123 AUDIO
    TITLE "0:"
    INDEX 01 03:04:17
  TRACK 124 AUDIO
    TITLE "8:cjc163_1015"
    INDEX 01 03:04:72
  TRACK 125 AUDIO
    TITLE "0:"
    INDEX 01 03:06:43
  TRACK 126 AUDIO
    TITLE "6:cjc163_1016"
    INDEX 01 03:07:09
  TRACK 127 AUDIO
    TITLE "0:"
    INDEX 01 03:11:27
  TRACK 128 AUDIO
    TITLE "7:cjc163_1017"
    INDEX 01 03:11:62
  TRACK 129 AUDIO
    TITLE "0:"
    INDEX 01 03:14:41
  TRACK 130 AUDIO
    TITLE "8:cjc163_1018"
    INDEX 01 03:15:20
  TRACK 131 AUDIO
    TITLE "0:"
    INDEX 01 03:16:63
  TRACK 132 AUDIO
    TITLE "6:cjc163_1019"
    INDEX 01 03:17:21
  TRACK 133 AUDIO
    TITLE "0:"
    INDEX 01 03:20:51
  TRACK 134 AUDIO
    TITLE "6:cjc163_1020"
    INDEX 01 03:21:19
  TRACK 135 AUDIO
    TITLE "0:"
    INDEX 01 03:25:54
  TRACK 136 AUDIO
    TITLE "7:cjc163_1021"
    INDEX 01 03:26:18
  TRACK 137 AUDIO
    TITLE "0:"
    INDEX 01 03:28:19
  TRACK 138 AUDIO
    TITLE "7:cjc163_1022"
    INDEX 01 03:28:64
  TRACK 139 AUDIO
    TITLE "0:"
    INDEX 01 03:32:03
  TRACK 140 AUDIO
    TITLE "8:cjc163_1023"
    INDEX 01 03:32:58
  TRACK 141 AUDIO
    TITLE "0:"
    INDEX 01 03:34:35
  TRACK 142 AUDIO
    TITLE "6:cjc163_1024"
    INDEX 01 03:35:00
  TRACK 143 AUDIO
    TITLE "0:"
    INDEX 01 03:38:70
  TRACK 144 AUDIO
    TITLE "7:cjc163_1025"
    INDEX 01 03:39:35
  TRACK 145 AUDIO
    TITLE "0:"
    INDEX 01 03:41:47
  TRACK 146 AUDIO
    TITLE "8:cjc163_1026"
    INDEX 01 03:42:25
  TRACK 147 AUDIO
    TITLE "0:"
    INDEX 01 03:44:01
  TRACK 148 AUDIO
    TITLE "6:cjc163_1027"
    INDEX 01 03:44:34
  TRACK 149 AUDIO
    TITLE "0:"
    INDEX 01 03:48:36
  TRACK 150 AUDIO
    TITLE "7:cjc163_1028"
    INDEX 01 03:49:00
  TRACK 151 AUDIO
    TITLE "0:"
    INDEX 01 03:51:40
  TRACK 152 AUDIO
    TITLE "8:cjc163_1029"
    INDEX 01 03:52:22
  TRACK 153 AUDIO
    TITLE "0:"
    INDEX 01 03:53:74
  TRACK 154 AUDIO
    TITLE "6:cjc163_1030"
    INDEX 01 03:54:36
  TRACK 155 AUDIO
    TITLE "0:"
    INDEX 01 03:58:44
  TRACK 156 AUDIO
    TITLE "7:cjc163_1031"
    INDEX 01 03:59:06
  TRACK 157 AUDIO
    TITLE "0:"
    INDEX 01 04:01:28
  TRACK 158 AUDIO
    TITLE "8:cjc163_1032"
    INDEX 01 04:02:06
  TRACK 159 AUDIO
    TITLE "0:"
    INDEX 01 04:03:61
  TRACK 160 AUDIO
    TITLE "8:cjc163_1033"
    INDEX 01 04:04:17
  TRACK 161 AUDIO
    TITLE "0:"
    INDEX 01 04:05:12
  TRACK 162 AUDIO
    TITLE "6:cjc163_1034"
    INDEX 01 04:05:56
  TRACK 163 AUDIO
    TITLE "0:"
    INDEX 01 04:09:57
  TRACK 164 AUDIO
    TITLE "7:cjc163_1035"
    INDEX 01 04:10:27
  TRACK 165 AUDIO
    TITLE "0:"
    INDEX 01 04:12:61
  TRACK 166 AUDIO
    TITLE "8:cjc163_1036"
    INDEX 01 04:13:22
  TRACK 167 AUDIO
    TITLE "0:"
    INDEX 01 04:14:21
  TRACK 168 AUDIO
    TITLE "6:cjc163_1037"
    INDEX 01 04:14:62
  TRACK 169 AUDIO
    TITLE "0:"
    INDEX 01 04:18:13
  TRACK 170 AUDIO
    TITLE "7:cjc163_1038"
    INDEX 01 04:18:54
  TRACK 171 AUDIO
    TITLE "0:"
    INDEX 01 04:20:57
  TRACK 172 AUDIO
    TITLE "8:cjc163_1039"
    INDEX 01 04:21:39
  TRACK 173 AUDIO
    TITLE "0:"
    INDEX 01 04:23:16
  TRACK 174 AUDIO
    TITLE "8:cjc163_1040"
    INDEX 01 04:23:52
  TRACK 175 AUDIO
    TITLE "0:"
    INDEX 01 04:24:53
  TRACK 176 AUDIO
    TITLE "6:cjc163_1041"
    INDEX 01 04:25:19
  TRACK 177 AUDIO
    TITLE "0:"
    INDEX 01 04:30:12
  TRACK 178 AUDIO
    TITLE "7:cjc163_1042"
    INDEX 01 04:30:52
  TRACK 179 AUDIO
    TITLE "0:"
    INDEX 01 04:33:36
  TRACK 180 AUDIO
    TITLE "8:cjc163_1043"
    INDEX 01 04:34:00
  TRACK 181 AUDIO
    TITLE "0:"
    INDEX 01 04:35:04
  TRACK 182 AUDIO
    TITLE "6:cjc163_1044"
    INDEX 01 04:35:43
  TRACK 183 AUDIO
    TITLE "0:"
    INDEX 01 04:40:03
  TRACK 184 AUDIO
    TITLE "7:cjc163_1045"
    INDEX 01 04:40:44
  TRACK 185 AUDIO
    TITLE "0:"
    INDEX 01 04:43:33
  TRACK 186 AUDIO
    TITLE "8:cjc163_1046"
    INDEX 01 04:44:13
  TRACK 187 AUDIO
    TITLE "0:"
    INDEX 01 04:45:53
  TRACK 188 AUDIO
    TITLE "8:cjc163_1047"
    INDEX 01 04:46:09
  TRACK 189 AUDIO
    TITLE "0:"
    INDEX 01 04:47:05
  TRACK 190 AUDIO
    TITLE "6:cjc163_1048"
    INDEX 01 04:47:48
  TRACK 191 AUDIO
    TITLE "0:"
    INDEX 01 04:52:10
  TRACK 192 AUDIO
    TITLE "7:cjc163_1049"
    INDEX 01 04:52:53
  TRACK 193 AUDIO
    TITLE "0:"
    INDEX 01 04:55:50
  TRACK 194 AUDIO
    TITLE "8:cjc163_1050"
    INDEX 01 04:56:12
  TRACK 195 AUDIO
    TITLE "0:"
    INDEX 01 04:57:09
  TRACK 196 AUDIO
    TITLE "6:cjc163_1051"
    INDEX 01 04:57:52
  TRACK 197 AUDIO
    TITLE "0:"
    INDEX 01 05:00:10
  TRACK 198 AUDIO
    TITLE "7:cjc163_1052"
    INDEX 01 05:00:57
  TRACK 199 AUDIO
    TITLE "0:"
    INDEX 01 05:02:24
  TRACK 200 AUDIO
    TITLE "8:cjc163_1053"
    INDEX 01 05:03:12
  TRACK 201 AUDIO
    TITLE "0:"
    INDEX 01 05:04:64
  TRACK 202 AUDIO
    TITLE "8:cjc163_1054"
    INDEX 01 05:05:26
  TRACK 203 AUDIO
    TITLE "0:"
    INDEX 01 05:06:26
  TRACK 204 AUDIO
    TITLE "6:cjc163_1055"
    INDEX 01 05:06:65
  TRACK 205 AUDIO
    TITLE "0:"
    INDEX 01 05:10:47
  TRACK 206 AUDIO
    TITLE "7:cjc163_1056"
    INDEX 01 05:11:09
  TRACK 207 AUDIO
    TITLE "0:"
    INDEX 01 05:13:16
  TRACK 208 AUDIO
    TITLE "8:cjc163_1057"
    INDEX 01 05:13:59
  TRACK 209 AUDIO
    TITLE "0:"
    INDEX 01 05:14:63
  TRACK 210 AUDIO
    TITLE "6:cjc163_1058"
    INDEX 01 05:15:29
  TRACK 211 AUDIO
    TITLE "0:"
    INDEX 01 05:18:02
  TRACK 212 AUDIO
    TITLE "7:cjc163_1059"
    INDEX 01 05:18:43
  TRACK 213 AUDIO
    TITLE "0:"
    INDEX 01 05:20:34
  TRACK 214 AUDIO
    TITLE "8:cjc163_1060"
    INDEX 01 05:21:18
  TRACK 215 AUDIO
    TITLE "0:"
    INDEX 01 05:22:46
  TRACK 216 AUDIO
    TITLE "6:cjc163_1061"
    INDEX 01 05:23:11
  TRACK 217 AUDIO
    TITLE "0:"
    INDEX 01 05:27:53
  TRACK 218 AUDIO
    TITLE "7:cjc163_1062"
    INDEX 01 05:28:20
  TRACK 219 AUDIO
    TITLE "0:"
    INDEX 01 05:31:43
  TRACK 220 AUDIO
    TITLE "8:cjc163_1063"
    INDEX 01 05:32:27
  TRACK 221 AUDIO
    TITLE "0:"
    INDEX 01 05:34:03
  TRACK 222 AUDIO
    TITLE "6:cjc163_1064"
    INDEX 01 05:34:40
  TRACK 223 AUDIO
    TITLE "0:"
    INDEX 01 05:37:22
  TRACK 224 AUDIO
    TITLE "6:cjc163_1065"
    INDEX 01 05:37:62
  TRACK 225 AUDIO
    TITLE "0:"
    INDEX 01 05:39:68
  TRACK 226 AUDIO
    TITLE "7:cjc163_1066"
    INDEX 01 05:40:35
  TRACK 227 AUDIO
    TITLE "0:"
    INDEX 01 05:42:43
  TRACK 228 AUDIO
    TITLE "7:cjc163_1067"
    INDEX 01 05:43:11
  TRACK 229 AUDIO
    TITLE "0:"
    INDEX 01 05:44:40
  TRACK 230 AUDIO
    TITLE "8:cjc163_1068"
    INDEX 01 05:45:20
  TRACK 231 AUDIO
    TITLE "0:"
    INDEX 01 05:46:66
  TRACK 232 AUDIO
    TITLE "6:cjc163_1069"
    INDEX 01 05:47:31
  TRACK 233 AUDIO
    TITLE "0:"
    INDEX 01 05:51:54
  TRACK 234 AUDIO
    TITLE "7:cjc163_1070"
    INDEX 01 05:52:18
  TRACK 235 AUDIO
    TITLE "0:"
    INDEX 01 05:55:13
  TRACK 236 AUDIO
    TITLE "8:cjc163_1071"
    INDEX 01 05:55:73
  TRACK 237 AUDIO
    TITLE "0:"
    INDEX 01 05:57:55
  TRACK 238 AUDIO
    TITLE "6:cjc163_1072"
    INDEX 01 05:58:17
  TRACK 239 AUDIO
    TITLE "0:"
    INDEX 01 06:02:28
  TRACK 240 AUDIO
    TITLE "7:cjc163_1073"
    INDEX 01 06:02:67
  TRACK 241 AUDIO
    TITLE "0:"
    INDEX 01 06:05:33
  TRACK 242 AUDIO
    TITLE "8:cjc163_1074"
    INDEX 01 06:06:12
  TRACK 243 AUDIO
    TITLE "0:"
    INDEX 01 06:07:67
  TRACK 244 AUDIO
    TITLE "6:cjc163_1075"
    INDEX 01 06:08:25
  TRACK 245 AUDIO
    TITLE "0:"
    INDEX 01 06:12:25
  TRACK 246 AUDIO
    TITLE "7:cjc163_1076"
    INDEX 01 06:12:66
  TRACK 247 AUDIO
    TITLE "0:"
    INDEX 01 06:16:05
  TRACK 248 AUDIO
    TITLE "8:cjc163_1077"
    INDEX 01 06:16:64
  TRACK 249 AUDIO
    TITLE "0:"
    INDEX 01 06:18:41
  TRACK 250 AUDIO
    TITLE "6:cjc163_1078"
    INDEX 01 06:19:09
  TRACK 251 AUDIO
    TITLE "0:"
    INDEX 01 06:24:69
  TRACK 252 AUDIO
    TITLE "7:cjc163_1079"
    INDEX 01 06:25:35
  TRACK 253 AUDIO
    TITLE "0:"
    INDEX 01 06:28:47
  TRACK 254 AUDIO
    TITLE "8:cjc163_1080"
    INDEX 01 06:29:29
  TRACK 255 AUDIO
    TITLE "0:"
    INDEX 01 06:31:04
  TRACK 256 AUDIO
    TITLE "6:cjc163_1081"
    INDEX 01 06:31:38
  TRACK 257 AUDIO
    TITLE "0:"
    INDEX 01 06:35:41
  TRACK 258 AUDIO
    TITLE "7:cjc163_1082"
    INDEX 01 06:36:10
  TRACK 259 AUDIO
    TITLE "0:"
    INDEX 01 06:38:54
  TRACK 260 AUDIO
    TITLE "8:cjc163_1083"
    INDEX 01 06:39:33
  TRACK 261 AUDIO
    TITLE "0:"
    INDEX 01 06:41:19
  TRACK 262 AUDIO
    TITLE "6:cjc163_1084"
    INDEX 01 06:41:64
  TRACK 263 AUDIO
    TITLE "0:"
    INDEX 01 06:46:49
  TRACK 264 AUDIO
    TITLE "7:cjc163_1085"
    INDEX 01 06:47:17
  TRACK 265 AUDIO
    TITLE "0:"
    INDEX 01 06:50:18
  TRACK 266 AUDIO
    TITLE "8:cjc163_1086"
    INDEX 01 06:50:68
  TRACK 267 AUDIO
    TITLE "0:"
    INDEX 01 06:52:24
  TRACK 268 AUDIO
    TITLE "6:cjc163_1087"
    INDEX 01 06:52:61
  TRACK 269 AUDIO
    TITLE "0:"
    INDEX 01 06:58:52
  TRACK 270 AUDIO
    TITLE "7:cjc163_1088"
    INDEX 01 06:59:15
  TRACK 271 AUDIO
    TITLE "0:"
    INDEX 01 07:03:18
  TRACK 272 AUDIO
    TITLE "8:cjc163_1089"
    INDEX 01 07:04:06
  TRACK 273 AUDIO
    TITLE "0:"
    INDEX 01 07:05:58
  TRACK 274 AUDIO
    TITLE "6:cjc163_1090"
    INDEX 01 07:06:22
  TRACK 275 AUDIO
    TITLE "0:"
    INDEX 01 07:10:01
  TRACK 276 AUDIO
    TITLE "7:cjc163_1091"
    INDEX 01 07:10:40
  TRACK 277 AUDIO
    TITLE "0:"
    INDEX 01 07:12:68
  TRACK 278 AUDIO
    TITLE "8:cjc163_1092"
    INDEX 01 07:13:50
  TRACK 279 AUDIO
    TITLE "0:"
    INDEX 01 07:15:12
  TRACK 280 AUDIO
    TITLE "6:cjc163_1093"
    INDEX 01 07:15:47
  TRACK 281 AUDIO
    TITLE "0:"
    INDEX 01 07:20:07
  TRACK 282 AUDIO
    TITLE "7:cjc163_1094"
    INDEX 01 07:20:46
  TRACK 283 AUDIO
    TITLE "0:"
    INDEX 01 07:23:50
  TRACK 284 AUDIO
    TITLE "8:cjc163_1095"
    INDEX 01 07:24:34
  TRACK 285 AUDIO
    TITLE "0:"
    INDEX 01 07:26:09
  TRACK 286 AUDIO
    TITLE "6:cjc163_1096"
    INDEX 01 07:26:49
  TRACK 287 AUDIO
    TITLE "0:"
    INDEX 01 07:32:06
  TRACK 288 AUDIO
    TITLE "7:cjc163_1097"
    INDEX 01 07:32:43
  TRACK 289 AUDIO
    TITLE "0:"
    INDEX 01 07:35:57
  TRACK 290 AUDIO
    TITLE "8:cjc163_1098"
    INDEX 01 07:36:41
  TRACK 291 AUDIO
    TITLE "0:"
    INDEX 01 07:38:17
  TRACK 292 AUDIO
    TITLE "6:cjc163_1099"
    INDEX 01 07:38:52
  TRACK 293 AUDIO
    TITLE "0:"
    INDEX 01 07:43:33
  TRACK 294 AUDIO
    TITLE "7:cjc163_1100"
    INDEX 01 07:44:00
  TRACK 295 AUDIO
    TITLE "0:"
    INDEX 01 07:47:33
  TRACK 296 AUDIO
    TITLE "8:cjc163_1101"
    INDEX 01 07:48:13
  TRACK 297 AUDIO
    TITLE "0:"
    INDEX 01 07:49:65
  TRACK 298 AUDIO
    TITLE "6:cjc163_1102"
    INDEX 01 07:50:33
  TRACK 299 AUDIO
    TITLE "0:"
    INDEX 01 07:55:11
  TRACK 300 AUDIO
    TITLE "7:cjc163_1103"
    INDEX 01 07:55:50
  TRACK 301 AUDIO
    TITLE "0:"
    INDEX 01 07:58:19
  TRACK 302 AUDIO
    TITLE "8:cjc163_1104"
    INDEX 01 07:58:74
  TRACK 303 AUDIO
    TITLE "0:"
    INDEX 01 08:00:48
  TRACK 304 AUDIO
    TITLE "6:cjc163_1105"
    INDEX 01 08:01:06
  TRACK 305 AUDIO
    TITLE "0:"
    INDEX 01 08:06:72
  TRACK 306 AUDIO
    TITLE "7:cjc163_1106"
    INDEX 01 08:07:34
  TRACK 307 AUDIO
    TITLE "0:"
    INDEX 01 08:11:00
  TRACK 308 AUDIO
    TITLE "8:cjc163_1107"
    INDEX 01 08:11:55
  TRACK 309 AUDIO
    TITLE "0:"
    INDEX 01 08:13:34
  TRACK 310 AUDIO
    TITLE "6:cjc163_1108"
    INDEX 01 08:14:03
  TRACK 311 AUDIO
    TITLE "0:"
    INDEX 01 08:18:08
  TRACK 312 AUDIO
    TITLE "7:cjc163_1109"
    INDEX 01 08:18:49
  TRACK 313 AUDIO
    TITLE "0:"
    INDEX 01 08:21:09
  TRACK 314 AUDIO
    TITLE "8:cjc163_1110"
    INDEX 01 08:21:59
  TRACK 315 AUDIO
    TITLE "0:"
    INDEX 01 08:23:39
  TRACK 316 AUDIO
    TITLE "6:cjc163_1111"
    INDEX 01 08:23:72
  TRACK 317 AUDIO
    TITLE "0:"
    INDEX 01 08:28:01
  TRACK 318 AUDIO
    TITLE "7:cjc163_1112"
    INDEX 01 08:28:38
  TRACK 319 AUDIO
    TITLE "0:"
    INDEX 01 08:31:19
  TRACK 320 AUDIO
    TITLE "8:cjc163_1113"
    INDEX 01 08:31:72
  TRACK 321 AUDIO
    TITLE "0:"
    INDEX 01 08:33:47
  TRACK 322 AUDIO
    TITLE "6:cjc163_1114"
    INDEX 01 08:34:13
  TRACK 323 AUDIO
    TITLE "0:"
    INDEX 01 08:39:50
  TRACK 324 AUDIO
    TITLE "7:cjc163_1115"
    INDEX 01 08:40:16
  TRACK 325 AUDIO
    TITLE "0:"
    INDEX 01 08:43:34
  TRACK 326 AUDIO
    TITLE "8:cjc163_1116"
    INDEX 01 08:44:12
  TRACK 327 AUDIO
    TITLE "0:"
    INDEX 01 08:45:44
  TRACK 328 AUDIO
    TITLE "6:cjc163_1117"
    INDEX 01 08:46:10
  TRACK 329 AUDIO
    TITLE "0:"
    INDEX 01 08:51:72
  TRACK 330 AUDIO
    TITLE "7:cjc163_1118"
    INDEX 01 08:52:37
  TRACK 331 AUDIO
    TITLE "0:"
    INDEX 01 08:56:11
  TRACK 332 AUDIO
    TITLE "8:cjc163_1119"
    INDEX 01 08:56:66
  TRACK 333 AUDIO
    TITLE "0:"
    INDEX 01 08:58:39
  TRACK 334 AUDIO
    TITLE "6:cjc163_1120"
    INDEX 01 08:59:03
  TRACK 335 AUDIO
    TITLE "0:"
    INDEX 01 09:05:04
  TRACK 336 AUDIO
    TITLE "7:cjc163_1121"
    INDEX 01 09:05:43
  TRACK 337 AUDIO
    TITLE "0:"
    INDEX 01 09:09:06
  TRACK 338 AUDIO
    TITLE "8:cjc163_1122"
    INDEX 01 09:09:57
  TRACK 339 AUDIO
    TITLE "0:"
    INDEX 01 09:11:12
  TRACK 340 AUDIO
    TITLE "6:cjc163_1123"
    INDEX 01 09:11:55
  TRACK 341 AUDIO
    TITLE "0:"
    INDEX 01 09:18:71
  TRACK 342 AUDIO
    TITLE "7:cjc163_1124"
    INDEX 01 09:19:37
  TRACK 343 AUDIO
    TITLE "0:"
    INDEX 01 09:24:07
